<svg width="688" height="146" viewBox="0 0 688 146" fill="none" xmlns="http://www.w3.org/2000/svg">
<g clip-path="url(#clip0_25_33)">
<path d="M156.624 95.48C148.048 95.48 141.36 93.368 136.56 89.144C131.76 84.856 129.36 78.584 129.36 70.328C129.36 62.008 131.76 55.736 136.56 51.512C141.36 47.224 148.048 45.08 156.624 45.08H188.784V56.12H156.624C152.464 56.12 149.264 57.272 147.024 59.576C144.848 61.88 143.76 65.464 143.76 70.328C143.76 75.128 144.848 78.68 147.024 80.984C149.264 83.288 152.464 84.44 156.624 84.44H189.744V95.48H156.624ZM222.249 95.48C213.673 95.48 206.985 93.368 202.185 89.144C197.385 84.856 194.985 78.584 194.985 70.328C194.985 62.008 197.385 55.736 202.185 51.512C206.985 47.224 213.673 45.08 222.249 45.08H240.009C248.585 45.08 255.273 47.224 260.073 51.512C264.873 55.736 267.273 62.008 267.273 70.328C267.273 78.584 264.873 84.856 260.073 89.144C255.273 93.368 248.585 95.48 240.009 95.48H222.249ZM222.249 84.44H240.009C244.169 84.44 247.337 83.288 249.513 80.984C251.753 78.68 252.873 75.128 252.873 70.328C252.873 65.464 251.753 61.88 249.513 59.576C247.337 57.272 244.169 56.12 240.009 56.12H222.249C218.089 56.12 214.889 57.272 212.649 59.576C210.473 61.88 209.385 65.464 209.385 70.328C209.385 75.128 210.473 78.68 212.649 80.984C214.889 83.288 218.089 84.44 222.249 84.44ZM336.8 95H322.88V26.36H336.8V95ZM334.4 95H301.28C292.704 95 286.016 92.888 281.216 88.664C276.416 84.44 274.016 78.328 274.016 70.328C274.016 62.264 276.416 56.12 281.216 51.896C286.016 47.672 292.704 45.56 301.28 45.56H333.44V56.6H301.28C297.12 56.6 293.92 57.752 291.68 60.056C289.504 62.296 288.416 65.72 288.416 70.328C288.416 74.872 289.504 78.296 291.68 80.6C293.92 82.84 297.12 83.96 301.28 83.96H334.4V95ZM372.718 95.48C364.142 95.48 357.454 93.368 352.654 89.144C347.854 84.856 345.454 78.584 345.454 70.328C345.454 62.008 347.854 55.736 352.654 51.512C357.454 47.224 364.142 45.08 372.718 45.08H396.718C402.35 45.08 406.638 46.424 409.582 49.112C412.59 51.736 414.094 55.512 414.094 60.44C414.094 70.488 408.302 75.512 396.718 75.512H360.43C361.774 81.464 365.87 84.44 372.718 84.44H411.598V95.48H372.718ZM372.718 56.12C366.126 56.12 362.062 58.904 360.526 64.472H396.046C397.326 64.472 398.318 64.088 399.022 63.32C399.79 62.552 400.174 61.496 400.174 60.152C400.174 57.464 398.798 56.12 396.046 56.12H372.718Z" fill="#FD6219" fill-opacity="0.5"/>
<path d="M456.311 116.6V45.56H491.831C500.407 45.56 507.095 47.672 511.895 51.896C516.695 56.12 519.095 62.232 519.095 70.232C519.095 78.296 516.695 84.44 511.895 88.664C507.095 92.888 500.407 95 491.831 95H470.231V116.6H456.311ZM491.831 56.6H470.231V83.96H491.831C495.991 83.96 499.159 82.84 501.335 80.6C503.575 78.296 504.695 74.84 504.695 70.232C504.695 65.688 503.575 62.296 501.335 60.056C499.159 57.752 495.991 56.6 491.831 56.6ZM527.749 95V26.36H541.669V95H527.749ZM567.962 95C562.33 95 558.202 93.592 555.578 90.776C553.018 87.96 551.738 84.312 551.738 79.832V45.56H565.658V78.2C565.658 82.04 567.578 83.96 571.418 83.96H591.386C595.226 83.96 597.146 82.04 597.146 78.2V45.56H611.066V79.832C611.066 84.312 609.754 87.96 607.13 90.776C604.57 93.592 600.474 95 594.842 95H567.962ZM619.492 95.48V84.44H666.532C669.22 84.44 670.564 82.936 670.564 79.928C670.564 76.984 669.22 75.512 666.532 75.512H636.1C630.404 75.512 626.084 74.232 623.14 71.672C620.196 69.048 618.724 65.304 618.724 60.44C618.724 55.512 620.196 51.736 623.14 49.112C626.148 46.424 630.468 45.08 636.1 45.08H679.876V56.12H636.772C634.02 56.12 632.644 57.464 632.644 60.152C632.644 61.496 633.028 62.552 633.796 63.32C634.564 64.088 635.556 64.472 636.772 64.472H669.028C674.02 64.472 677.828 65.784 680.452 68.408C683.14 70.968 684.484 74.712 684.484 79.64C684.484 84.632 683.14 88.536 680.452 91.352C677.764 94.104 673.956 95.48 669.028 95.48H619.492Z" fill="#FD6219"/>
<path fill-rule="evenodd" clip-rule="evenodd" d="M92.9598 47.2219C95.2127 47.807 96.4303 49.7042 95.6793 51.4594L78.4793 91.6594C77.7283 93.4146 75.2932 94.3632 73.0402 93.7781C70.7873 93.193 69.5697 91.2959 70.3206 89.5406L87.5206 49.3406C88.2716 47.5854 90.7068 46.6369 92.9598 47.2219ZM64.5405 58.0812C66.2198 59.3895 66.2198 61.5106 64.5405 62.8188L54.6811 70.5L64.5405 78.1812C66.2198 79.4895 66.2198 81.6106 64.5405 82.9188C62.8613 84.2271 60.1387 84.2271 58.4594 82.9188L45.5594 72.8688C43.8802 71.5606 43.8802 69.4395 45.5594 68.1312L58.4594 58.0812C60.1387 56.7729 62.8613 56.7729 64.5405 58.0812ZM101.459 58.0812C103.139 56.7729 105.861 56.7729 107.541 58.0812L120.441 68.1312C122.12 69.4395 122.12 71.5606 120.441 72.8688L107.541 82.9188C105.861 84.2271 103.139 84.2271 101.459 82.9188C99.7802 81.6106 99.7802 79.4895 101.459 78.1812L111.319 70.5L101.459 62.8188C99.7802 61.5106 99.7802 59.3895 101.459 58.0812Z" fill="#FD6219" fill-opacity="0.5"/>
<path d="M-119 128V32H-23V48H-6.99999V80H-23V96H-87V128H-119ZM-87 80H-39V48H-87V80Z" fill="#FD6219" fill-opacity="0.5"/>
<path d="M25 112V96H9V48H25V32H121V48H41V96H121V112H25Z" fill="#FD6219"/>
</g>
<defs>
<clipPath id="clip0_25_33">
<rect width="688" height="146" fill="white"/>
</clipPath>
</defs>
</svg>
