<svg width="261" height="142" viewBox="0 0 261 142" fill="none" xmlns="http://www.w3.org/2000/svg">
<g clip-path="url(#clip0_25_44)">
<path fill-rule="evenodd" clip-rule="evenodd" d="M219.96 50.2219C222.213 50.807 223.43 52.7041 222.679 54.4593L205.479 94.6593C204.728 96.4145 202.293 97.3631 200.04 96.7781C197.787 96.193 196.57 94.2958 197.321 92.5406L214.521 52.3406C215.272 50.5854 217.707 49.6368 219.96 50.2219ZM191.541 61.0812C193.22 62.3894 193.22 64.5105 191.541 65.8188L181.681 73.5L191.541 81.1812C193.22 82.4894 193.22 84.6105 191.541 85.9188C189.861 87.227 187.139 87.227 185.459 85.9188L172.559 75.8688C170.88 74.5605 170.88 72.4394 172.559 71.1312L185.459 61.0812C187.139 59.7729 189.861 59.7729 191.541 61.0812ZM228.459 61.0812C230.139 59.7729 232.861 59.7729 234.541 61.0812L247.441 71.1312C249.12 72.4394 249.12 74.5605 247.441 75.8688L234.541 85.9188C232.861 87.227 230.139 87.227 228.459 85.9188C226.78 84.6105 226.78 82.4894 228.459 81.1812L238.319 73.5L228.459 65.8188C226.78 64.5105 226.78 62.3894 228.459 61.0812Z" fill="#FD6219" fill-opacity="0.5"/>
<path fill-rule="evenodd" clip-rule="evenodd" d="M65.5 51C67.2397 51 68.65 52.1641 68.65 53.6V61.4L78.1 61.4C79.8397 61.4 81.25 62.5641 81.25 64C81.25 65.4359 79.8397 66.6 78.1 66.6H68.65V74.4C68.65 75.8359 67.2397 77 65.5 77C63.7603 77 62.35 75.8359 62.35 74.4V66.6H52.9C51.1603 66.6 49.75 65.4359 49.75 64C49.75 62.5641 51.1603 61.4 52.9 61.4L62.35 61.4V53.6C62.35 52.1641 63.7603 51 65.5 51Z" fill="#FD6219"/>
<path d="M8 128V32H104V48H120V80H104V96H40V128H8ZM40 80H88V48H40V80Z" fill="#FD6219" fill-opacity="0.5"/>
<path d="M152 112V96H136V48H152V32H248V48H168V96H248V112H152Z" fill="#FD6219"/>
</g>
<defs>
<clipPath id="clip0_25_44">
<rect width="261" height="142" fill="white"/>
</clipPath>
</defs>
</svg>
