<svg width="611" height="240" viewBox="0 0 611 240" fill="none" xmlns="http://www.w3.org/2000/svg">
<g clip-path="url(#clip0_25_33)">
<path d="M79.624 136.48C71.048 136.48 64.36 134.368 59.56 130.144C54.76 125.856 52.36 119.584 52.36 111.328C52.36 103.008 54.76 96.736 59.56 92.512C64.36 88.224 71.048 86.08 79.624 86.08H111.784V97.12H79.624C75.464 97.12 72.264 98.272 70.024 100.576C67.848 102.88 66.76 106.464 66.76 111.328C66.76 116.128 67.848 119.68 70.024 121.984C72.264 124.288 75.464 125.44 79.624 125.44H112.744V136.48H79.624ZM145.249 136.48C136.673 136.48 129.985 134.368 125.185 130.144C120.385 125.856 117.985 119.584 117.985 111.328C117.985 103.008 120.385 96.736 125.185 92.512C129.985 88.224 136.673 86.08 145.249 86.08H163.009C171.585 86.08 178.273 88.224 183.073 92.512C187.873 96.736 190.273 103.008 190.273 111.328C190.273 119.584 187.873 125.856 183.073 130.144C178.273 134.368 171.585 136.48 163.009 136.48H145.249ZM145.249 125.44H163.009C167.169 125.44 170.337 124.288 172.513 121.984C174.753 119.68 175.873 116.128 175.873 111.328C175.873 106.464 174.753 102.88 172.513 100.576C170.337 98.272 167.169 97.12 163.009 97.12H145.249C141.089 97.12 137.889 98.272 135.649 100.576C133.473 102.88 132.385 106.464 132.385 111.328C132.385 116.128 133.473 119.68 135.649 121.984C137.889 124.288 141.089 125.44 145.249 125.44ZM259.8 136H245.88V67.36H259.8V136ZM257.4 136H224.28C215.704 136 209.016 133.888 204.216 129.664C199.416 125.44 197.016 119.328 197.016 111.328C197.016 103.264 199.416 97.12 204.216 92.896C209.016 88.672 215.704 86.56 224.28 86.56H256.44V97.6H224.28C220.12 97.6 216.92 98.752 214.68 101.056C212.504 103.296 211.416 106.72 211.416 111.328C211.416 115.872 212.504 119.296 214.68 121.6C216.92 123.84 220.12 124.96 224.28 124.96H257.4V136ZM295.718 136.48C287.142 136.48 280.454 134.368 275.654 130.144C270.854 125.856 268.454 119.584 268.454 111.328C268.454 103.008 270.854 96.736 275.654 92.512C280.454 88.224 287.142 86.08 295.718 86.08H319.718C325.35 86.08 329.638 87.424 332.582 90.112C335.59 92.736 337.094 96.512 337.094 101.44C337.094 111.488 331.302 116.512 319.718 116.512H283.43C284.774 122.464 288.87 125.44 295.718 125.44H334.598V136.48H295.718ZM295.718 97.12C289.126 97.12 285.062 99.904 283.526 105.472H319.046C320.326 105.472 321.318 105.088 322.022 104.32C322.79 103.552 323.174 102.496 323.174 101.152C323.174 98.464 321.798 97.12 319.046 97.12H295.718Z" fill="#FD6219" fill-opacity="0.5"/>
<path d="M379.311 157.6V86.56H414.831C423.407 86.56 430.095 88.672 434.895 92.896C439.695 97.12 442.095 103.232 442.095 111.232C442.095 119.296 439.695 125.44 434.895 129.664C430.095 133.888 423.407 136 414.831 136H393.231V157.6H379.311ZM414.831 97.6H393.231V124.96H414.831C418.991 124.96 422.159 123.84 424.335 121.6C426.575 119.296 427.695 115.84 427.695 111.232C427.695 106.688 426.575 103.296 424.335 101.056C422.159 98.752 418.991 97.6 414.831 97.6ZM450.749 136V67.36H464.669V136H450.749ZM490.962 136C485.33 136 481.202 134.592 478.578 131.776C476.018 128.96 474.738 125.312 474.738 120.832V86.56H488.658V119.2C488.658 123.04 490.578 124.96 494.418 124.96H514.386C518.226 124.96 520.146 123.04 520.146 119.2V86.56H534.066V120.832C534.066 125.312 532.754 128.96 530.13 131.776C527.57 134.592 523.474 136 517.842 136H490.962ZM542.492 136.48V125.44H589.532C592.22 125.44 593.564 123.936 593.564 120.928C593.564 117.984 592.22 116.512 589.532 116.512H559.1C553.404 116.512 549.084 115.232 546.14 112.672C543.196 110.048 541.724 106.304 541.724 101.44C541.724 96.512 543.196 92.736 546.14 90.112C549.148 87.424 553.468 86.08 559.1 86.08H602.876V97.12H559.772C557.02 97.12 555.644 98.464 555.644 101.152C555.644 102.496 556.028 103.552 556.796 104.32C557.564 105.088 558.556 105.472 559.772 105.472H592.028C597.02 105.472 600.828 106.784 603.452 109.408C606.14 111.968 607.484 115.712 607.484 120.64C607.484 125.632 606.14 129.536 603.452 132.352C600.764 135.104 596.956 136.48 592.028 136.48H542.492Z" fill="#FD6219"/>
<path d="M12 112V16H108V32H124V64H108V80H44V112H12ZM44 64H92V32H44V64ZM28 224V208H12V160H28V144H124V160H44V208H124V224H28Z" fill="#FD6219"/>
<path fill-rule="evenodd" clip-rule="evenodd" d="M96.9598 160.222C99.2127 160.807 100.43 162.704 99.6793 164.459L82.4793 204.659C81.7283 206.415 79.2932 207.363 77.0402 206.778C74.7873 206.193 73.5697 204.296 74.3206 202.541L91.5206 162.341C92.2716 160.585 94.7068 159.637 96.9598 160.222ZM68.5405 171.081C70.2198 172.389 70.2198 174.511 68.5405 175.819L58.6811 183.5L68.5405 191.181C70.2198 192.489 70.2198 194.611 68.5405 195.919C66.8613 197.227 64.1387 197.227 62.4594 195.919L49.5594 185.869C47.8802 184.561 47.8802 182.439 49.5594 181.131L62.4594 171.081C64.1387 169.773 66.8613 169.773 68.5405 171.081ZM105.459 171.081C107.139 169.773 109.861 169.773 111.541 171.081L124.441 181.131C126.12 182.439 126.12 184.561 124.441 185.869L111.541 195.919C109.861 197.227 107.139 197.227 105.459 195.919C103.78 194.611 103.78 192.489 105.459 191.181L115.319 183.5L105.459 175.819C103.78 174.511 103.78 172.389 105.459 171.081Z" fill="#FD6219" fill-opacity="0.5"/>
<path fill-rule="evenodd" clip-rule="evenodd" d="M68.5 34C70.2397 34 71.65 35.1641 71.65 36.6V44.4L81.1 44.4C82.8397 44.4 84.25 45.5641 84.25 47C84.25 48.4359 82.8397 49.6 81.1 49.6H71.65V57.4C71.65 58.8359 70.2397 60 68.5 60C66.7603 60 65.35 58.8359 65.35 57.4V49.6H55.9C54.1603 49.6 52.75 48.4359 52.75 47C52.75 45.5641 54.1603 44.4 55.9 44.4L65.35 44.4V36.6C65.35 35.1641 66.7603 34 68.5 34Z" fill="#FD6219" fill-opacity="0.5"/>
</g>
<defs>
<clipPath id="clip0_25_33">
<rect width="611" height="240" fill="white"/>
</clipPath>
</defs>
</svg>
