<svg width="38" height="28" viewBox="0 0 38 28" fill="none" xmlns="http://www.w3.org/2000/svg">
<path fill-rule="evenodd" clip-rule="evenodd" d="M28.0767 5.84846C28.8298 6.04483 29.2368 6.68156 28.9858 7.27063L23.2358 20.7624C22.9847 21.3515 22.1707 21.6699 21.4175 21.4735C20.6643 21.2771 20.2573 20.6404 20.5083 20.0513L26.2583 6.55953C26.5094 5.97046 27.3235 5.65212 28.0767 5.84846ZM18.576 9.49302C19.1374 9.93211 19.1374 10.644 18.576 11.083L15.28 13.661L18.576 16.2389C19.1374 16.678 19.1374 17.3899 18.576 17.8289C18.0147 18.268 17.1045 18.268 16.5431 17.8289L12.2306 14.456C11.6692 14.0169 11.6692 13.3051 12.2306 12.866L16.5431 9.49302C17.1045 9.05393 18.0147 9.05393 18.576 9.49302ZM30.918 9.49302C31.4796 9.05393 32.3896 9.05393 32.9512 9.49302L37.2637 12.866C37.825 13.3051 37.825 14.0169 37.2637 14.456L32.9512 17.8289C32.3896 18.268 31.4796 18.268 30.918 17.8289C30.3567 17.3899 30.3567 16.678 30.918 16.2389L34.2142 13.661L30.918 11.083C30.3567 10.644 30.3567 9.93211 30.918 9.49302Z" fill="#04A5E5" fill-opacity="0.5"/>
<path d="M5.35763 27.5891V22.2192H0.00878906V6.10961H5.35763V0.739746H37.4506V6.10961H10.7065V22.2192H37.4506V27.5891H5.35763Z" fill="#04A5E5"/>
</svg>
