<svg width="230" height="49" viewBox="0 0 230 49" fill="none" xmlns="http://www.w3.org/2000/svg">
<g clip-path="url(#clip0_154_2017)">
<mask id="mask0_154_2017" style="mask-type:luminance" maskUnits="userSpaceOnUse" x="0" y="0" width="230" height="49">
<path d="M230 0H0V49H230V0Z" fill="white"/>
</mask>
<g mask="url(#mask0_154_2017)">
<path d="M52.3595 32.0447C49.4926 32.0447 47.2567 31.3358 45.6521 29.9182C44.0474 28.4791 43.2451 26.3741 43.2451 23.6032C43.2451 20.8109 44.0474 18.7059 45.6521 17.2883C47.2567 15.8492 49.4926 15.1296 52.3595 15.1296H63.1107V18.8348H52.3595C50.9688 18.8348 49.8991 19.2214 49.1502 19.9947C48.4228 20.768 48.0591 21.9708 48.0591 23.6032C48.0591 25.2142 48.4228 26.4063 49.1502 27.1796C49.8991 27.9528 50.9688 28.3395 52.3595 28.3395H63.4316V32.0447H52.3595ZM74.2981 32.0447C71.4311 32.0447 69.1953 31.3358 67.5907 29.9182C65.986 28.4791 65.1837 26.3741 65.1837 23.6032C65.1837 20.8109 65.986 18.7059 67.5907 17.2883C69.1953 15.8492 71.4311 15.1296 74.2981 15.1296H80.2353C83.1023 15.1296 85.3381 15.8492 86.9428 17.2883C88.5474 18.7059 89.3498 20.8109 89.3498 23.6032C89.3498 26.3741 88.5474 28.4791 86.9428 29.9182C85.3381 31.3358 83.1023 32.0447 80.2353 32.0447H74.2981ZM74.2981 28.3395H80.2353C81.626 28.3395 82.6851 27.9528 83.4125 27.1796C84.1614 26.4063 84.5358 25.2142 84.5358 23.6032C84.5358 21.9708 84.1614 20.768 83.4125 19.9947C82.6851 19.2214 81.626 18.8348 80.2353 18.8348H74.2981C72.9074 18.8348 71.8377 19.2214 71.0888 19.9947C70.3614 20.768 69.9977 21.9708 69.9977 23.6032C69.9977 25.2142 70.3614 26.4063 71.0888 27.1796C71.8377 27.9528 72.9074 28.3395 74.2981 28.3395ZM112.593 31.8836H107.939V8.84686H112.593V31.8836ZM111.79 31.8836H100.718C97.8514 31.8836 95.6156 31.1748 94.0109 29.7571C92.4063 28.3395 91.604 26.2882 91.604 23.6032C91.604 20.8968 92.4063 18.8348 94.0109 17.4172C95.6156 15.9995 97.8514 15.2907 100.718 15.2907H111.47V18.9959H100.718C99.3277 18.9959 98.2579 19.3825 97.5091 20.1558C96.7816 20.9076 96.4179 22.0567 96.4179 23.6032C96.4179 25.1283 96.7816 26.2774 97.5091 27.0507C98.2579 27.8025 99.3277 28.1784 100.718 28.1784H111.79V31.8836ZM124.6 32.0447C121.733 32.0447 119.497 31.3358 117.893 29.9182C116.288 28.4791 115.486 26.3741 115.486 23.6032C115.486 20.8109 116.288 18.7059 117.893 17.2883C119.497 15.8492 121.733 15.1296 124.6 15.1296H132.624C134.506 15.1296 135.94 15.5807 136.924 16.4828C137.93 17.3635 138.432 18.6308 138.432 20.2847C138.432 23.6569 136.496 25.3431 132.624 25.3431H120.492C120.942 27.3407 122.311 28.3395 124.6 28.3395H137.598V32.0447H124.6ZM124.6 18.8348C122.397 18.8348 121.038 19.7692 120.524 21.6379H132.399C132.827 21.6379 133.158 21.509 133.394 21.2512C133.65 20.9935 133.779 20.6391 133.779 20.188C133.779 19.2859 133.319 18.8348 132.399 18.8348H124.6Z" fill="#04A5E5" fill-opacity="0.5"/>
<path d="M152.546 39.1329V15.2907H164.42C167.287 15.2907 169.523 15.9995 171.128 17.4172C172.732 18.8348 173.535 20.8861 173.535 23.571C173.535 26.2774 172.732 28.3395 171.128 29.7571C169.523 31.1748 167.287 31.8836 164.42 31.8836H157.199V39.1329H152.546ZM164.42 18.9959H157.199V28.1784H164.42C165.811 28.1784 166.87 27.8025 167.598 27.0507C168.346 26.2774 168.721 25.1175 168.721 23.571C168.721 22.046 168.346 20.9076 167.598 20.1558C166.87 19.3825 165.811 18.9959 164.42 18.9959ZM176.428 31.8836V8.84686H181.081V31.8836H176.428ZM189.871 31.8836C187.988 31.8836 186.608 31.411 185.731 30.4659C184.875 29.5208 184.447 28.2965 184.447 26.7929V15.2907H189.101V26.2452C189.101 27.534 189.743 28.1784 191.026 28.1784H197.702C198.985 28.1784 199.627 27.534 199.627 26.2452V15.2907H204.281V26.7929C204.281 28.2965 203.842 29.5208 202.965 30.4659C202.109 31.411 200.74 31.8836 198.857 31.8836H189.871ZM207.098 32.0447V28.3395H222.823C223.722 28.3395 224.171 27.8347 224.171 26.8252C224.171 25.8371 223.722 25.3431 222.823 25.3431H212.65C210.746 25.3431 209.301 24.9135 208.317 24.0543C207.333 23.1737 206.841 21.9171 206.841 20.2847C206.841 18.6308 207.333 17.3635 208.317 16.4828C209.323 15.5807 210.767 15.1296 212.65 15.1296H227.284V18.8348H212.874C211.954 18.8348 211.494 19.2859 211.494 20.188C211.494 20.6391 211.623 20.9935 211.88 21.2512C212.136 21.509 212.468 21.6379 212.874 21.6379H223.658C225.327 21.6379 226.6 22.0782 227.477 22.9589C228.375 23.818 228.825 25.0746 228.825 26.7285C228.825 28.4039 228.375 29.7141 227.477 30.6592C226.578 31.5829 225.305 32.0447 223.658 32.0447H207.098Z" fill="#04A5E5"/>
<path fill-rule="evenodd" clip-rule="evenodd" d="M31.0767 15.8485C31.8298 16.0448 32.2368 16.6816 31.9858 17.2706L26.2358 30.7624C25.9847 31.3515 25.1707 31.6699 24.4175 31.4735C23.6643 31.2771 23.2573 30.6404 23.5083 30.0513L29.2583 16.5595C29.5094 15.9705 30.3235 15.6521 31.0767 15.8485ZM21.576 19.493C22.1374 19.9321 22.1374 20.644 21.576 21.083L18.28 23.661L21.576 26.2389C22.1374 26.678 22.1374 27.3899 21.576 27.8289C21.0147 28.268 20.1045 28.268 19.5431 27.8289L15.2306 24.456C14.6692 24.0169 14.6692 23.3051 15.2306 22.866L19.5431 19.493C20.1045 19.0539 21.0147 19.0539 21.576 19.493ZM33.918 19.493C34.4796 19.0539 35.3896 19.0539 35.9512 19.493L40.2637 22.866C40.825 23.3051 40.825 24.0169 40.2637 24.456L35.9512 27.8289C35.3896 28.268 34.4796 28.268 33.918 27.8289C33.3567 27.3899 33.3567 26.678 33.918 26.2389L37.2142 23.661L33.918 21.083C33.3567 20.644 33.3567 19.9321 33.918 19.493Z" fill="#04A5E5" fill-opacity="0.5"/>
<path d="M8.35763 37.5891V32.2192H3.00879V16.1096H8.35763V10.7397H40.4506V16.1096H13.7065V32.2192H40.4506V37.5891H8.35763Z" fill="#04A5E5"/>
</g>
</g>
<defs>
<clipPath id="clip0_154_2017">
<rect width="230" height="49" fill="white"/>
</clipPath>
</defs>
</svg>
