<svg width="20" height="20" viewBox="0 0 20 20" fill="none" xmlns="http://www.w3.org/2000/svg">
<path d="M10.1341 9.68332C10.1091 9.68332 10.0924 9.68332 10.0674 9.68332C10.0258 9.67499 9.96745 9.67499 9.91745 9.68332C7.50078 9.60832 5.67578 7.70832 5.67578 5.36666C5.67578 2.98332 7.61745 1.04166 10.0008 1.04166C12.3841 1.04166 14.3258 2.98332 14.3258 5.36666C14.3174 7.70832 12.4841 9.60832 10.1591 9.68332C10.1508 9.68332 10.1424 9.68332 10.1341 9.68332ZM10.0008 2.29166C8.30911 2.29166 6.92578 3.67499 6.92578 5.36666C6.92578 7.03332 8.22578 8.37499 9.88411 8.43332C9.92578 8.42499 10.0424 8.42499 10.1508 8.43332C11.7841 8.35832 13.0674 7.01666 13.0758 5.36666C13.0758 3.67499 11.6924 2.29166 10.0008 2.29166Z" fill="#747474"/>
<path d="M10.1404 18.7917C8.50703 18.7917 6.86536 18.375 5.6237 17.5417C4.46536 16.775 3.83203 15.725 3.83203 14.5833C3.83203 13.4417 4.46536 12.3833 5.6237 11.6083C8.1237 9.95001 12.1737 9.95001 14.657 11.6083C15.807 12.375 16.4487 13.425 16.4487 14.5667C16.4487 15.7083 15.8154 16.7667 14.657 17.5417C13.407 18.375 11.7737 18.7917 10.1404 18.7917ZM6.31536 12.6583C5.51536 13.1917 5.08203 13.875 5.08203 14.5917C5.08203 15.3 5.5237 15.9833 6.31536 16.5083C8.39036 17.9 11.8904 17.9 13.9654 16.5083C14.7654 15.975 15.1987 15.2917 15.1987 14.575C15.1987 13.8667 14.757 13.1833 13.9654 12.6583C11.8904 11.275 8.39036 11.275 6.31536 12.6583Z" fill="#747474"/>
</svg>
